<svg width="53" height="52" viewBox="0 0 53 52" fill="none" xmlns="http://www.w3.org/2000/svg">
<path d="M27.9741 7.37292C27.6628 7.4705 27.3306 7.52161 26.9891 7.52161C26.0156 7.52161 25.1398 7.10342 24.5311 6.43898C23.9874 5.84655 23.6529 5.05433 23.6529 4.18544C23.6529 2.34543 25.1467 0.851592 26.9891 0.851592C28.8314 0.851592 30.3229 2.34543 30.3229 4.18544C30.3229 5.68393 29.3355 6.95241 27.9741 7.37292Z" fill="#1C3F94"/>
<path d="M12.9288 15.5972C13.7141 9.92621 18.8322 5.8861 24.5311 6.43903C25.1398 7.10348 26.0156 7.52166 26.9914 7.52166C27.3329 7.52166 27.6651 7.47055 27.9764 7.37297C31.7865 9.13398 34.2097 12.9627 34.1725 17.1584C33.8984 21.5145 37.0882 25.32 41.428 25.8055C40.6892 26.9532 39.6135 27.8453 38.3497 28.3564C33.6451 26.5978 30.6435 21.9675 30.9595 16.9563C30.9107 14.0894 29.2287 11.5037 26.6266 10.2979C25.8762 9.92388 25.0585 9.70318 24.2221 9.6451C20.4097 9.2757 16.9364 11.8568 16.193 15.6135C15.1127 15.4625 14.0138 15.4578 12.9312 15.5972L12.9288 15.5972Z" fill="#1C3F94"/>
<path d="M34.4675 11.8452C40.1037 10.8392 45.5284 14.4588 46.7644 20.0486C46.4879 20.5341 46.3323 21.0917 46.3323 21.6911C46.3323 22.4043 46.5576 23.0664 46.941 23.6101C46.4438 27.778 43.5514 31.2675 39.5484 32.5267C35.3201 33.6116 32.6879 37.8236 33.5661 42.0961C32.2465 41.7499 31.0663 41.0018 30.1881 39.9564C30.4065 34.9382 33.8821 30.6541 38.7469 29.4066C41.4581 28.4749 43.398 26.075 43.7395 23.2291C43.8627 22.3997 43.8209 21.554 43.6164 20.7432C42.7917 17.0028 39.2627 14.4983 35.4595 14.9514C35.269 13.8757 34.9368 12.8303 34.4675 11.8452Z" fill="#1C3F94"/>
<path d="M28.3528 13.2972C29.217 14.3543 29.7328 15.653 29.828 17.0144C26.7033 20.9476 21.3714 22.3694 16.7017 20.5178C13.9603 19.6768 10.9796 20.4783 9.0304 22.5809C8.44495 23.1802 7.9803 23.8888 7.66899 24.6648C6.13797 28.1775 7.52262 32.278 10.8658 34.1459C10.3872 35.1287 10.041 36.1695 9.84121 37.2428C4.6906 34.7453 2.43009 28.6259 4.71615 23.3777C5.85454 22.8596 6.64909 21.7213 6.66767 20.3924C9.51828 17.3141 13.9092 16.1896 17.8889 17.5232C21.9453 19.1308 26.5523 17.2723 28.3528 13.2972Z" fill="#1C3F94"/>
<path d="M-1.45727e-07 20.3459C-2.26258e-07 18.5036 1.49152 17.0097 3.33384 17.0097C5.17617 17.0097 6.66769 18.5036 6.66769 20.3459C6.66769 20.3622 6.66769 20.3784 6.66769 20.3947C6.65143 21.7213 5.85456 22.862 4.71617 23.3801C4.29566 23.5729 3.82637 23.6797 3.33384 23.6797C1.49152 23.6797 -6.52979e-08 22.1859 -1.45727e-07 20.3459H-1.45727e-07Z" fill="#1C3F94"/>
<path d="M46.7621 20.0485C47.3336 19.0379 48.4185 18.3549 49.6638 18.3549C51.5061 18.3549 52.9976 19.8487 52.9976 21.6911C52.9976 23.5334 51.5038 25.0249 49.6638 25.0249C48.537 25.0249 47.5404 24.465 46.9386 23.6101C46.5553 23.0664 46.33 22.4066 46.33 21.6911C46.33 21.094 46.4856 20.5341 46.7621 20.0485Z" fill="#1C3F94"/>
<path d="M12.42 21.8607C13.6932 21.3658 15.0848 21.2775 16.4114 21.6051C19.1853 25.7939 18.8903 31.3023 15.6888 35.1728C14.0417 37.5216 13.8837 40.6022 15.28 43.1067C15.6679 43.8501 16.1976 44.5076 16.8412 45.0466C19.708 47.5882 24.0339 47.5394 26.845 44.9374C27.6303 45.6971 28.5154 46.3453 29.4749 46.868C25.5068 50.9964 18.9902 51.2543 14.7061 47.4581C14.5598 46.1594 13.6676 45.0884 12.4688 44.6795C10.4197 41.0158 10.7101 36.4924 13.2076 33.1191C15.9909 29.7573 15.6447 24.8042 12.4224 21.8607L12.42 21.8607Z" fill="#1C3F94"/>
<path d="M42.0459 33.0726C43.0101 32.5592 43.8999 31.9203 44.6944 31.1676C47.394 36.2159 45.6284 42.4957 40.6915 45.3974C40.4778 45.3532 40.2547 45.33 40.0271 45.33C38.9375 45.33 37.9663 45.8527 37.3577 46.6635C33.2409 47.479 29.0265 45.8086 26.5918 42.3911C24.2546 38.7041 19.4362 37.503 15.64 39.659C15.5634 38.2976 15.9095 36.9431 16.6321 35.7861C21.4714 34.4433 26.6197 36.4227 29.31 40.6673C31.0315 42.958 33.9146 44.0615 36.7281 43.5063C37.5528 43.3669 38.345 43.0648 39.0559 42.6188C42.3573 40.6766 43.649 36.5482 42.0436 33.0703L42.0459 33.0726Z" fill="#1C3F94"/>
<path d="M40.027 45.3323C40.2547 45.3323 40.4754 45.3555 40.6915 45.3997C42.2132 45.7064 43.3609 47.0538 43.3609 48.6662C43.3609 50.5085 41.867 52 40.027 52C38.187 52 36.6909 50.5085 36.6909 48.6662C36.6909 47.9158 36.9394 47.2234 37.3576 46.6658C37.9663 45.855 38.9351 45.3323 40.027 45.3323Z" fill="#1C3F94"/>
<path d="M12.4688 44.6795C13.6676 45.0884 14.5574 46.1594 14.7061 47.4581C14.72 47.5812 14.727 47.7066 14.727 47.8367C14.727 49.6768 13.2332 51.1706 11.3932 51.1706C9.55317 51.1706 8.05701 49.6768 8.05701 47.8367C8.05701 45.9967 9.55085 44.5029 11.3932 44.5029C11.7695 44.5029 12.132 44.5656 12.4688 44.6818L12.4688 44.6795Z" fill="#1C3F94"/>
</svg>
