<svg width="54" height="30" viewBox="0 0 54 30" fill="none" xmlns="http://www.w3.org/2000/svg">
<rect width="54" height="30" fill="#F5F5F5"/>
<g id="Termplate 1">
<rect width="1440" height="1116" transform="translate(-713 -783)" fill="white"/>
<g id="KNOWLEDGE">
<g id="Group">
<path id="Vector" d="M53.5959 22.5924C52.5405 18.9578 50.5881 18.8343 50.1687 18.7365C50.1198 18.7248 50.0709 18.7155 50.0219 18.7039C48.7475 17.5249 49.6165 12.6088 49.6165 12.6088C49.6165 10.689 49.281 9.31212 48.7871 8.32191L48.7359 7.82798L49.2904 7.50646L49.5723 7.34337L50.7489 6.66307C50.8235 6.58852 50.8235 6.46969 50.7489 6.39747L44.4958 3.79501C44.4236 3.72279 44.3047 3.72279 44.2302 3.79501L37.9771 6.39747C37.9025 6.46969 37.9025 6.58852 37.9771 6.66307L38.4431 6.93334L38.4128 7.34572C38.252 7.37368 38.1309 7.51114 38.1309 7.67889C38.1309 7.83033 38.2287 7.95847 38.3662 8.00041L38.0936 11.8213L38.471 12.9513L38.8461 11.8213L38.5735 8.00041C38.711 7.95614 38.8089 7.828 38.8089 7.67889C38.8089 7.51114 38.6877 7.37135 38.5269 7.34572L38.499 6.96596L39.1514 7.34339L39.1793 7.3597L39.6966 7.66025L39.5754 9.21428C39.2888 10.0973 39.1118 11.2087 39.1118 12.6089C39.1118 12.6089 39.9831 17.5249 38.7064 18.7039C38.6574 18.7132 38.6085 18.7249 38.5596 18.7365C38.28 18.8018 37.3271 18.8833 36.4091 19.99C37.5041 20.6121 38.8415 21.9494 39.7199 24.9689C39.8084 25.2788 39.8387 25.6026 39.834 25.9219C41.2902 26.1222 42.8954 26.2038 44.3633 26.2038C48.0398 26.2061 52.5924 25.7005 53.4566 24.065C53.6873 23.6223 53.7385 23.0865 53.5964 22.5925L53.5959 22.5924ZM47.8063 18.4592C47.79 18.5967 47.7271 18.7271 47.6315 18.853C47.1725 19.4401 45.8818 20.2858 44.3627 20.2858C42.8436 20.2858 41.5529 19.4377 41.0939 18.853C40.9961 18.7271 40.9355 18.5967 40.9192 18.4592V18.4569C40.9425 18.4499 40.9937 18.4313 41.0636 18.401C41.0916 18.387 41.1242 18.373 41.1545 18.3567C41.4341 18.2122 41.8395 17.907 41.8395 17.3712H41.8418C42.2798 17.8045 42.7691 18.1517 43.2886 18.3567C43.6404 18.4942 44.0039 18.571 44.379 18.571C44.7564 18.571 45.1199 18.4942 45.4693 18.3567C45.9842 18.1517 46.4689 17.8115 46.9045 17.3828C46.9068 17.3852 46.9092 17.3852 46.9138 17.3875C46.9255 18.0771 47.6174 18.38 47.8038 18.4475C47.8062 18.4522 47.8062 18.4545 47.8062 18.4592L47.8063 18.4592ZM48.6054 13.3475C48.5378 13.7366 48.384 14.0558 48.2233 14.1933C48.1604 14.2492 48.0928 14.2748 48.0299 14.2632C47.9926 14.2562 47.9623 14.2399 47.9321 14.2119C47.5756 15.3186 46.8953 16.4206 46.0356 17.0846C45.5346 17.4714 44.9732 17.709 44.3791 17.709C43.7826 17.709 43.2165 17.4691 42.7132 17.0776C41.8581 16.4159 41.1825 15.3163 40.8283 14.2119C40.798 14.2399 40.7677 14.2562 40.7305 14.2632C40.6582 14.2772 40.579 14.2399 40.5068 14.1653C40.3554 14.0162 40.2202 13.711 40.155 13.3499C40.0688 12.8699 40.1387 12.4482 40.3064 12.3271C40.3297 12.3108 40.353 12.2991 40.3787 12.2945C40.4392 12.2851 40.5021 12.3084 40.565 12.3574C40.565 12.3574 40.565 12.3527 40.5674 12.3434C40.5837 12.185 40.7491 10.8034 41.5925 10.2186L43.475 10.9129C44.1717 11.1855 44.3254 11.2414 44.7867 11.0853L47.9483 12.7116L48.3817 12.2945C48.3957 12.2968 48.412 12.3015 48.426 12.3085C48.617 12.397 48.6962 12.842 48.6054 13.3476L48.6054 13.3475Z" fill="#1C3F94"/>
<path id="Vector_2" d="M17.2619 19.9877C16.3439 18.8833 15.391 18.7995 15.1137 18.7342C15.0648 18.7226 15.0159 18.7133 14.9669 18.7016C13.6925 17.5227 14.5615 12.6066 14.5615 12.6066C14.5615 10.6867 14.2284 9.30986 13.7321 8.31965L13.6832 7.82572L14.2377 7.5042L14.5196 7.34111L15.6962 6.66081C15.7685 6.58625 15.7685 6.46743 15.6962 6.39521L9.44313 3.79275C9.36858 3.72053 9.24976 3.72053 9.17753 3.79275L2.92205 6.39986C2.84749 6.47209 2.84749 6.59091 2.92205 6.66546L3.38802 6.93572L3.35773 7.34811C3.19697 7.37607 3.07582 7.51353 3.07582 7.68128C3.07582 7.83272 3.17367 7.96086 3.31113 8.00279L3.03854 11.8237L3.41597 12.9537L3.79341 11.8237L3.52082 8.00279C3.65828 7.95853 3.75613 7.83039 3.75613 7.68128C3.75613 7.51353 3.63265 7.37374 3.47422 7.34811L3.44626 6.96834L4.09865 7.34578L4.1266 7.36209L4.64383 7.66264L4.52268 9.21667C4.23611 10.0997 4.05905 11.2111 4.05905 12.6113C4.05905 12.6113 4.92806 17.5273 3.65365 18.7063C3.60239 18.7156 3.55347 18.7273 3.50687 18.7389C3.0875 18.8368 1.13506 18.9602 0.079656 22.5948C-0.0624642 23.0887 -0.0135382 23.6246 0.21945 24.0649C1.08381 25.7005 5.63401 26.2037 9.31281 26.2037C10.7806 26.2037 12.3835 26.1221 13.8421 25.9218C13.8374 25.6026 13.8677 25.2811 13.9562 24.9688C14.8299 21.947 16.1672 20.6097 17.2623 19.9876L17.2619 19.9877ZM12.7513 18.4593C12.735 18.5968 12.6744 18.7273 12.5765 18.8531C12.1176 19.4402 10.8268 20.2859 9.30774 20.2859C7.78866 20.2859 6.49796 19.4378 6.03894 18.8531C5.94108 18.7273 5.88051 18.5968 5.8642 18.4593V18.457C5.88749 18.45 5.94108 18.4314 6.00865 18.4011C6.03661 18.3871 6.06922 18.3731 6.10184 18.3568C6.37909 18.2124 6.78912 17.9072 6.78912 17.3713C7.22714 17.8047 7.71641 18.1518 8.23597 18.3568C8.58545 18.4943 8.95122 18.5712 9.32633 18.5712C9.70144 18.5712 10.0672 18.4943 10.4167 18.3568C10.9316 18.1518 11.4162 17.8116 11.8518 17.3829C11.8565 17.3853 11.8565 17.3853 11.8612 17.3876C11.8728 18.0772 12.5648 18.3801 12.7512 18.4477V18.4593L12.7513 18.4593ZM13.5528 13.3476C13.4852 13.7367 13.3314 14.0559 13.1707 14.1934C13.1054 14.2493 13.0402 14.2749 12.9773 14.2633C12.94 14.2563 12.9097 14.24 12.8795 14.212C12.523 15.3187 11.8427 16.4207 10.9829 17.0847C10.482 17.4715 9.92056 17.7092 9.32645 17.7092C8.73 17.7092 8.16386 17.4692 7.66058 17.0778C6.80552 16.4161 6.12988 15.3164 5.77571 14.212C5.74542 14.24 5.71513 14.2563 5.68018 14.2633C5.60563 14.2773 5.52874 14.24 5.45418 14.1654C5.30507 14.0163 5.16761 13.7111 5.10238 13.35C5.01617 12.87 5.08607 12.4483 5.25382 12.3272C5.27712 12.3109 5.30042 12.2993 5.32838 12.2946C5.38895 12.2853 5.45186 12.3086 5.51476 12.3575C5.51476 12.3575 5.51476 12.3528 5.51709 12.3435C5.5334 12.1851 5.69882 10.8035 6.54226 10.2187L8.42475 10.913C9.12139 11.1856 9.27516 11.2415 9.73644 11.0854L12.8957 12.7117L13.3291 12.2946C13.3454 12.297 13.3594 12.3016 13.371 12.3086C13.5621 12.3972 13.6436 12.8422 13.5528 13.3477L13.5528 13.3476Z" fill="#1C3F94"/>
<path id="Vector_3" d="M34.5754 19.9901C34.5101 19.9761 34.4449 19.9598 34.3797 19.9482C32.6789 18.3779 33.8391 11.8216 33.8391 11.8216C33.8391 9.26112 33.3941 7.42521 32.7348 6.10421L32.6695 5.44717L33.4081 5.01848L33.7832 4.8018L35.3512 3.89551C35.4491 3.79766 35.4491 3.63923 35.3512 3.53904L27.0129 0.0722231C26.964 0.0232964 26.9011 0 26.8359 0C26.773 0 26.7077 0.0232982 26.6588 0.0722231L18.3223 3.54137C18.2245 3.63922 18.2245 3.79765 18.3223 3.89784L18.9444 4.25663L18.9048 4.80648C18.6905 4.84143 18.5297 5.02781 18.5297 5.25148C18.5297 5.45185 18.6625 5.62192 18.8442 5.6825L18.4808 10.7756L18.984 12.2806L19.4849 10.7756L19.1215 5.6825C19.3032 5.62426 19.436 5.45418 19.436 5.25148C19.436 5.02781 19.2729 4.84143 19.0609 4.80648L19.026 4.3009L19.895 4.80415L19.9299 4.82512L20.6195 5.22586L20.4564 7.29944C20.072 8.47837 19.8367 9.96011 19.8367 11.8263C19.8367 11.8263 20.9969 18.3824 19.2961 19.9528C19.2309 19.9645 19.1633 19.9808 19.1004 19.9948C18.5389 20.1253 15.9388 20.293 14.5292 25.1368C14.3405 25.7961 14.4058 26.5114 14.7156 27.0962C15.8689 29.2746 21.9314 29.9479 26.833 29.9479H26.8399H26.8516C31.7536 29.9479 37.8112 29.2746 38.9623 27.0962C39.2722 26.5091 39.3398 25.7938 39.1487 25.1368C37.7368 20.2884 35.1367 20.1206 34.5752 19.9901L34.5754 19.9901ZM31.4254 19.622C31.4045 19.8037 31.3206 19.9808 31.1901 20.1485C30.5797 20.9314 28.8603 22.059 26.8333 22.059C24.8064 22.059 23.0893 20.929 22.4765 20.1485C22.346 19.9831 22.2645 19.806 22.2435 19.622C22.2738 19.6103 22.3437 19.587 22.4369 19.5451C22.4741 19.5288 22.5184 19.5078 22.5603 19.4845C22.9308 19.2911 23.476 18.8834 23.476 18.1705C24.0608 18.7506 24.7108 19.2096 25.4051 19.4845C25.8711 19.6709 26.3604 19.7734 26.859 19.7734C27.3599 19.7734 27.8468 19.6709 28.3151 19.4845C29.0024 19.2119 29.6478 18.7576 30.2279 18.1868C30.2326 18.1891 30.2349 18.1914 30.2396 18.1938C30.2535 19.1141 31.1762 19.5172 31.4255 19.608C31.4278 19.6103 31.4278 19.615 31.4255 19.622L31.4254 19.622ZM32.4949 12.807C32.404 13.3243 32.199 13.7529 31.9846 13.9347C31.9124 13.9976 31.8378 14.0302 31.7656 14.0302C31.754 14.0302 31.74 14.0279 31.7283 14.0255C31.6794 14.0162 31.6375 13.9929 31.5979 13.958C31.1226 15.4328 30.2163 16.9029 29.07 17.7883C28.4036 18.3032 27.6534 18.62 26.8636 18.62C26.0668 18.62 25.3142 18.3008 24.6432 17.7789C23.5039 16.8959 22.6023 15.4304 22.1294 13.9603C22.0897 13.9976 22.0478 14.0209 21.9989 14.0279C21.9849 14.0302 21.9733 14.0325 21.9593 14.0325C21.8731 14.0325 21.7845 13.9836 21.6983 13.8974C21.498 13.697 21.3162 13.2917 21.23 12.8094C21.1159 12.171 21.2067 11.6072 21.4304 11.4464C21.4607 11.4254 21.4933 11.4091 21.5283 11.4021C21.5399 11.3998 21.5515 11.3998 21.5655 11.3998C21.6354 11.3998 21.7053 11.4301 21.7775 11.486C21.7775 11.486 21.7775 11.479 21.7799 11.4673C21.8008 11.2553 22.0222 9.41475 23.1452 8.63657L25.6544 9.56386C26.2415 9.79452 26.5398 9.90868 26.8357 9.90868C27.0081 9.90868 27.1782 9.8714 27.4042 9.79451L31.6165 11.9636L32.1943 11.4068C32.2153 11.4114 32.2339 11.4184 32.2526 11.4254C32.5065 11.5396 32.616 12.1313 32.4949 12.807L32.4949 12.807Z" fill="#1C3F94"/>
</g>
<g id="Group 44">
<circle id="Ellipse 2" cx="27" cy="15" r="44.5" stroke="#1C3F94"/>
</g>
</g>
</g>
</svg>
