<svg width="45" height="51" viewBox="0 0 45 51" fill="none" xmlns="http://www.w3.org/2000/svg">
<rect width="45" height="51" fill="#F5F5F5"/>
<g id="Termplate 1">
<rect width="1440" height="1116" transform="translate(-718 -615)" fill="white"/>
<g id="KNOWLEDGE">
<g id="Group">
<path id="Vector" d="M0 44.1129V50.5895H28.7232L28.7211 44.1129C28.7211 40.1851 25.6953 37.157 21.7651 37.157H7.0075C3.23721 37.157 5.0125e-05 40.2367 5.0125e-05 44.1129H0Z" fill="#1C3F94"/>
<path id="Vector_2" d="M14.3348 34.2912C18.7417 34.2912 22.3525 30.6806 22.3525 26.2734C22.3525 21.8662 18.742 18.2556 14.3348 18.2556C9.92783 18.2556 6.31702 21.8662 6.31702 26.2734C6.37094 30.6804 9.92761 34.2912 14.3348 34.2912Z" fill="#1C3F94"/>
<path id="Vector_3" d="M33.1277 35.4586C36.6325 35.4586 39.3929 32.5926 39.3929 29.1934C39.3929 25.7964 36.5248 22.8766 33.1277 22.8766C29.6228 22.8766 26.8624 25.7427 26.8624 29.1419C26.8624 32.5388 29.6227 35.4586 33.1277 35.4586Z" fill="#1C3F94"/>
<path id="Vector_4" d="M38.9137 37.7421H28.0842C29.8885 39.2808 31.0042 41.6181 31.0042 44.1671L31.2697 50.5922H44.4367V43.2094C44.4367 40.1836 41.9937 37.7426 38.9142 37.7426L38.9137 37.7421Z" fill="#1C3F94"/>
<path id="Vector_5" d="M33.182 9.5498H34.4035V13.0546H33.182V9.5498Z" fill="#1C3F94"/>
<path id="Vector_6" d="M30.8444 11.9389H32.0659V13.1064H30.8444V11.9389Z" fill="#1C3F94"/>
<path id="Vector_7" d="M28.5095 6.04477H34.4036V8.43385H28.5095V6.04477Z" fill="#1C3F94"/>
<path id="Vector_8" d="M30.8444 9.5498H32.0659V10.7174H30.8444V9.5498Z" fill="#1C3F94"/>
<path id="Vector_9" d="M28.5095 9.5498H29.731V10.7174H28.5095V9.5498Z" fill="#1C3F94"/>
<path id="Vector_10" d="M28.5095 11.9389H29.731V13.1064H28.5095V11.9389Z" fill="#1C3F94"/>
<path id="Vector_11" d="M40.2409 7.00093C38.9136 2.01125 33.818 -1.01472 28.7743 0.312552C23.7846 1.63982 20.7566 6.78909 22.0838 11.7812C22.7205 14.1703 24.2075 16.0824 26.1196 17.3016L23.6766 21.0719L33.604 18.4713C38.5957 17.142 41.5681 12.0445 40.2409 7.00093ZM35.5166 14.2738H27.3417V4.8773H35.5166V14.2738Z" fill="#1C3F94"/>
</g>
<g id="Group 44">
<circle id="Ellipse 1" cx="22" cy="31" r="44.5" stroke="#1C3F94"/>
</g>
</g>
</g>
</svg>
